# Blender 3.5.0
# www.blender.org
mtllib spikeWall.mtl
o 立方体
v 0.500000 -4.000000 -3.000000
v 0.500000 4.000000 -3.000000
v 0.500000 -4.000000 3.000000
v 0.500000 4.000000 3.000000
v -0.500000 -4.000000 -3.000000
v -0.500000 4.000000 -3.000000
v -0.500000 -4.000000 3.000000
v -0.500000 4.000000 3.000000
vn 1.0000 -0.0000 -0.0000
vn -0.0000 -0.0000 1.0000
vn -1.0000 -0.0000 -0.0000
vn -0.0000 -0.0000 -1.0000
vn -0.0000 -1.0000 -0.0000
vn -0.0000 1.0000 -0.0000
vt 0.375000 0.000000
vt 0.375000 1.000000
vt 0.125000 0.750000
vt 0.625000 0.000000
vt 0.625000 1.000000
vt 0.875000 0.750000
vt 0.125000 0.500000
vt 0.375000 0.250000
vt 0.625000 0.250000
vt 0.875000 0.500000
vt 0.375000 0.750000
vt 0.625000 0.750000
vt 0.375000 0.500000
vt 0.625000 0.500000
s 0
f 2/4/1 3/8/1 1/1/1
f 4/9/2 7/13/2 3/8/2
f 8/14/3 5/11/3 7/13/3
f 6/12/4 1/2/4 5/11/4
f 7/13/5 1/3/5 3/7/5
f 4/10/6 6/12/6 8/14/6
f 2/4/1 4/9/1 3/8/1
f 4/9/2 8/14/2 7/13/2
f 8/14/3 6/12/3 5/11/3
f 6/12/4 2/5/4 1/2/4
f 7/13/5 5/11/5 1/3/5
f 4/10/6 2/6/6 6/12/6
o 円錐
v 0.321580 3.328662 1.955803
v 0.321580 3.761675 1.205803
v 1.321580 3.328662 1.455803
v 0.321580 2.895649 1.205803
v 0.321580 3.328662 -1.044197
v 0.321580 3.761675 -1.794197
v 1.321580 3.328662 -1.544197
v 0.321580 2.895649 -1.794197
v 0.321580 1.746130 2.955803
v 0.321580 2.179143 2.205803
v 1.321580 1.746130 2.455803
v 0.321580 1.313117 2.205803
v 0.321580 1.746130 0.955803
v 0.321580 2.179143 0.205803
v 1.321580 1.746130 0.455803
v 0.321580 1.313117 0.205803
v 0.321580 1.746130 -0.044197
v 0.321580 2.179143 -0.794197
v 1.321580 1.746130 -0.544197
v 0.321580 1.313117 -0.794197
v 0.321580 1.746130 -2.044197
v 0.321580 2.179143 -2.794197
v 1.321580 1.746130 -2.544197
v 0.321580 1.313117 -2.794197
v 0.321580 0.163599 1.955803
v 0.321580 0.596611 1.205803
v 1.321580 0.163599 1.455803
v 0.321580 -0.269414 1.205803
v 0.321580 0.163599 -1.044197
v 0.321580 0.596611 -1.794197
v 1.321580 0.163599 -1.544197
v 0.321580 -0.269414 -1.794197
v 0.321580 -1.418933 2.955803
v 0.321580 -0.985920 2.205803
v 1.321580 -1.418933 2.455803
v 0.321580 -1.851946 2.205803
v 0.321580 -1.418933 0.955803
v 0.321580 -0.985920 0.205803
v 1.321580 -1.418933 0.455803
v 0.321580 -1.851946 0.205803
v 0.321580 -1.418933 -0.044197
v 0.321580 -0.985920 -0.794197
v 1.321580 -1.418933 -0.544197
v 0.321580 -1.851946 -0.794197
v 0.321580 -1.418933 -2.044197
v 0.321580 -0.985920 -2.794197
v 1.321580 -1.418933 -2.544197
v 0.321580 -1.851946 -2.794197
v 0.321580 -3.001465 1.955803
v 0.321580 -2.568452 1.205803
v 1.321580 -3.001465 1.455803
v 0.321580 -3.434478 1.205803
v 0.321580 -3.001465 -1.044197
v 0.321580 -2.568452 -1.794197
v 1.321580 -3.001465 -1.544197
v 0.321580 -3.434478 -1.794197
v -0.321580 3.328662 1.955803
v -0.321580 3.761675 1.205803
v -1.321580 3.328662 1.455803
v -0.321580 2.895649 1.205803
v -0.321580 3.328662 -1.044197
v -0.321580 3.761675 -1.794197
v -1.321580 3.328662 -1.544197
v -0.321580 2.895649 -1.794197
v -0.321580 1.746130 2.955803
v -0.321580 2.179143 2.205803
v -1.321580 1.746130 2.455803
v -0.321580 1.313117 2.205803
v -0.321580 1.746130 0.955803
v -0.321580 2.179143 0.205803
v -1.321580 1.746130 0.455803
v -0.321580 1.313117 0.205803
v -0.321580 1.746130 -0.044197
v -0.321580 2.179143 -0.794197
v -1.321580 1.746130 -0.544197
v -0.321580 1.313117 -0.794197
v -0.321580 1.746130 -2.044197
v -0.321580 2.179143 -2.794197
v -1.321580 1.746130 -2.544197
v -0.321580 1.313117 -2.794197
v -0.321580 0.163598 1.955803
v -0.321580 0.596611 1.205803
v -1.321580 0.163598 1.455803
v -0.321580 -0.269414 1.205803
v -0.321580 0.163598 -1.044197
v -0.321580 0.596611 -1.794197
v -1.321580 0.163598 -1.544197
v -0.321580 -0.269414 -1.794197
v -0.321580 -1.418933 2.955803
v -0.321580 -0.985920 2.205803
v -1.321580 -1.418933 2.455803
v -0.321580 -1.851946 2.205803
v -0.321580 -1.418933 0.955803
v -0.321580 -0.985920 0.205803
v -1.321580 -1.418933 0.455803
v -0.321580 -1.851946 0.205803
v -0.321580 -1.418933 -0.044197
v -0.321580 -0.985920 -0.794197
v -1.321580 -1.418933 -0.544197
v -0.321580 -1.851946 -0.794197
v -0.321580 -1.418933 -2.044197
v -0.321580 -0.985920 -2.794197
v -1.321580 -1.418933 -2.544197
v -0.321580 -1.851946 -2.794197
v -0.321580 -3.001465 1.955803
v -0.321580 -2.568452 1.205803
v -1.321580 -3.001465 1.455803
v -0.321580 -3.434478 1.205803
v -0.321580 -3.001465 -1.044197
v -0.321580 -2.568452 -1.794197
v -1.321580 -3.001465 -1.544197
v -0.321580 -3.434478 -1.794197
vn -1.0000 -0.0000 -0.0000
vn 0.2425 0.8402 0.4851
vn 0.2425 -0.8402 0.4851
vn 0.2425 -0.0000 -0.9701
vn 1.0000 -0.0000 -0.0000
vn -0.2425 0.8402 0.4851
vn -0.2425 -0.8402 0.4851
vn -0.2425 -0.0000 -0.9701
vt 0.750000 0.490000
vt 0.250000 0.490000
vt 0.957846 0.130000
vt 0.457846 0.130000
vt 0.250000 0.250000
vt 0.542154 0.130000
vt 0.042154 0.130000
vt 0.750000 0.490000
vt 0.250000 0.490000
vt 0.957846 0.130000
vt 0.457846 0.130000
vt 0.250000 0.250000
vt 0.542154 0.130000
vt 0.042154 0.130000
vt 0.750000 0.490000
vt 0.250000 0.490000
vt 0.957846 0.130000
vt 0.457846 0.130000
vt 0.250000 0.250000
vt 0.542154 0.130000
vt 0.042154 0.130000
vt 0.750000 0.490000
vt 0.250000 0.490000
vt 0.957846 0.130000
vt 0.457846 0.130000
vt 0.250000 0.250000
vt 0.542154 0.130000
vt 0.042154 0.130000
vt 0.750000 0.490000
vt 0.250000 0.490000
vt 0.957846 0.130000
vt 0.457846 0.130000
vt 0.250000 0.250000
vt 0.542154 0.130000
vt 0.042154 0.130000
vt 0.750000 0.490000
vt 0.250000 0.490000
vt 0.957846 0.130000
vt 0.457846 0.130000
vt 0.250000 0.250000
vt 0.542154 0.130000
vt 0.042154 0.130000
vt 0.750000 0.490000
vt 0.250000 0.490000
vt 0.957846 0.130000
vt 0.457846 0.130000
vt 0.250000 0.250000
vt 0.542154 0.130000
vt 0.042154 0.130000
vt 0.750000 0.490000
vt 0.250000 0.490000
vt 0.957846 0.130000
vt 0.457846 0.130000
vt 0.250000 0.250000
vt 0.542154 0.130000
vt 0.042154 0.130000
vt 0.750000 0.490000
vt 0.250000 0.490000
vt 0.957846 0.130000
vt 0.457846 0.130000
vt 0.250000 0.250000
vt 0.542154 0.130000
vt 0.042154 0.130000
vt 0.750000 0.490000
vt 0.250000 0.490000
vt 0.957846 0.130000
vt 0.457846 0.130000
vt 0.250000 0.250000
vt 0.542154 0.130000
vt 0.042154 0.130000
vt 0.750000 0.490000
vt 0.250000 0.490000
vt 0.957846 0.130000
vt 0.457846 0.130000
vt 0.250000 0.250000
vt 0.542154 0.130000
vt 0.042154 0.130000
vt 0.750000 0.490000
vt 0.250000 0.490000
vt 0.957846 0.130000
vt 0.457846 0.130000
vt 0.250000 0.250000
vt 0.542154 0.130000
vt 0.042154 0.130000
vt 0.750000 0.490000
vt 0.250000 0.490000
vt 0.957846 0.130000
vt 0.457846 0.130000
vt 0.250000 0.250000
vt 0.542154 0.130000
vt 0.042154 0.130000
vt 0.750000 0.490000
vt 0.250000 0.490000
vt 0.957846 0.130000
vt 0.457846 0.130000
vt 0.250000 0.250000
vt 0.542154 0.130000
vt 0.042154 0.130000
vt 0.750000 0.490000
vt 0.250000 0.490000
vt 0.957846 0.130000
vt 0.457846 0.130000
vt 0.250000 0.250000
vt 0.542154 0.130000
vt 0.042154 0.130000
vt 0.750000 0.490000
vt 0.250000 0.490000
vt 0.957846 0.130000
vt 0.457846 0.130000
vt 0.250000 0.250000
vt 0.542154 0.130000
vt 0.042154 0.130000
vt 0.750000 0.490000
vt 0.250000 0.490000
vt 0.957846 0.130000
vt 0.457846 0.130000
vt 0.250000 0.250000
vt 0.542154 0.130000
vt 0.042154 0.130000
vt 0.750000 0.490000
vt 0.250000 0.490000
vt 0.957846 0.130000
vt 0.457846 0.130000
vt 0.250000 0.250000
vt 0.542154 0.130000
vt 0.042154 0.130000
vt 0.750000 0.490000
vt 0.250000 0.490000
vt 0.957846 0.130000
vt 0.457846 0.130000
vt 0.250000 0.250000
vt 0.542154 0.130000
vt 0.042154 0.130000
vt 0.750000 0.490000
vt 0.250000 0.490000
vt 0.957846 0.130000
vt 0.457846 0.130000
vt 0.250000 0.250000
vt 0.542154 0.130000
vt 0.042154 0.130000
vt 0.750000 0.490000
vt 0.250000 0.490000
vt 0.957846 0.130000
vt 0.457846 0.130000
vt 0.250000 0.250000
vt 0.542154 0.130000
vt 0.042154 0.130000
vt 0.750000 0.490000
vt 0.250000 0.490000
vt 0.957846 0.130000
vt 0.457846 0.130000
vt 0.250000 0.250000
vt 0.542154 0.130000
vt 0.042154 0.130000
vt 0.750000 0.490000
vt 0.250000 0.490000
vt 0.957846 0.130000
vt 0.457846 0.130000
vt 0.250000 0.250000
vt 0.542154 0.130000
vt 0.042154 0.130000
vt 0.750000 0.490000
vt 0.250000 0.490000
vt 0.957846 0.130000
vt 0.457846 0.130000
vt 0.250000 0.250000
vt 0.542154 0.130000
vt 0.042154 0.130000
vt 0.750000 0.490000
vt 0.250000 0.490000
vt 0.957846 0.130000
vt 0.457846 0.130000
vt 0.250000 0.250000
vt 0.542154 0.130000
vt 0.042154 0.130000
vt 0.750000 0.490000
vt 0.250000 0.490000
vt 0.957846 0.130000
vt 0.457846 0.130000
vt 0.250000 0.250000
vt 0.542154 0.130000
vt 0.042154 0.130000
vt 0.750000 0.490000
vt 0.250000 0.490000
vt 0.957846 0.130000
vt 0.457846 0.130000
vt 0.250000 0.250000
vt 0.542154 0.130000
vt 0.042154 0.130000
vt 0.750000 0.490000
vt 0.250000 0.490000
vt 0.957846 0.130000
vt 0.457846 0.130000
vt 0.250000 0.250000
vt 0.542154 0.130000
vt 0.042154 0.130000
s 0
f 9/15/7 10/17/7 12/20/7
f 9/16/8 11/19/8 10/18/8
f 12/21/9 11/19/9 9/16/9
f 10/18/10 11/19/10 12/21/10
f 13/22/7 14/24/7 16/27/7
f 13/23/8 15/26/8 14/25/8
f 16/28/9 15/26/9 13/23/9
f 14/25/10 15/26/10 16/28/10
f 17/29/7 18/31/7 20/34/7
f 17/30/8 19/33/8 18/32/8
f 20/35/9 19/33/9 17/30/9
f 18/32/10 19/33/10 20/35/10
f 21/36/7 22/38/7 24/41/7
f 21/37/8 23/40/8 22/39/8
f 24/42/9 23/40/9 21/37/9
f 22/39/10 23/40/10 24/42/10
f 25/43/7 26/45/7 28/48/7
f 25/44/8 27/47/8 26/46/8
f 28/49/9 27/47/9 25/44/9
f 26/46/10 27/47/10 28/49/10
f 29/50/7 30/52/7 32/55/7
f 29/51/8 31/54/8 30/53/8
f 32/56/9 31/54/9 29/51/9
f 30/53/10 31/54/10 32/56/10
f 33/57/7 34/59/7 36/62/7
f 33/58/8 35/61/8 34/60/8
f 36/63/9 35/61/9 33/58/9
f 34/60/10 35/61/10 36/63/10
f 37/64/7 38/66/7 40/69/7
f 37/65/8 39/68/8 38/67/8
f 40/70/9 39/68/9 37/65/9
f 38/67/10 39/68/10 40/70/10
f 41/71/7 42/73/7 44/76/7
f 41/72/8 43/75/8 42/74/8
f 44/77/9 43/75/9 41/72/9
f 42/74/10 43/75/10 44/77/10
f 45/78/7 46/80/7 48/83/7
f 45/79/8 47/82/8 46/81/8
f 48/84/9 47/82/9 45/79/9
f 46/81/10 47/82/10 48/84/10
f 49/85/7 50/87/7 52/90/7
f 49/86/8 51/89/8 50/88/8
f 52/91/9 51/89/9 49/86/9
f 50/88/10 51/89/10 52/91/10
f 53/92/7 54/94/7 56/97/7
f 53/93/8 55/96/8 54/95/8
f 56/98/9 55/96/9 53/93/9
f 54/95/10 55/96/10 56/98/10
f 57/99/7 58/101/7 60/104/7
f 57/100/8 59/103/8 58/102/8
f 60/105/9 59/103/9 57/100/9
f 58/102/10 59/103/10 60/105/10
f 61/106/7 62/108/7 64/111/7
f 61/107/8 63/110/8 62/109/8
f 64/112/9 63/110/9 61/107/9
f 62/109/10 63/110/10 64/112/10
f 65/113/11 68/118/11 66/115/11
f 65/114/12 66/116/12 67/117/12
f 68/119/13 65/114/13 67/117/13
f 66/116/14 68/119/14 67/117/14
f 69/120/11 72/125/11 70/122/11
f 69/121/12 70/123/12 71/124/12
f 72/126/13 69/121/13 71/124/13
f 70/123/14 72/126/14 71/124/14
f 73/127/11 76/132/11 74/129/11
f 73/128/12 74/130/12 75/131/12
f 76/133/13 73/128/13 75/131/13
f 74/130/14 76/133/14 75/131/14
f 77/134/11 80/139/11 78/136/11
f 77/135/12 78/137/12 79/138/12
f 80/140/13 77/135/13 79/138/13
f 78/137/14 80/140/14 79/138/14
f 81/141/11 84/146/11 82/143/11
f 81/142/12 82/144/12 83/145/12
f 84/147/13 81/142/13 83/145/13
f 82/144/14 84/147/14 83/145/14
f 85/148/11 88/153/11 86/150/11
f 85/149/12 86/151/12 87/152/12
f 88/154/13 85/149/13 87/152/13
f 86/151/14 88/154/14 87/152/14
f 89/155/11 92/160/11 90/157/11
f 89/156/12 90/158/12 91/159/12
f 92/161/13 89/156/13 91/159/13
f 90/158/14 92/161/14 91/159/14
f 93/162/11 96/167/11 94/164/11
f 93/163/12 94/165/12 95/166/12
f 96/168/13 93/163/13 95/166/13
f 94/165/14 96/168/14 95/166/14
f 97/169/11 100/174/11 98/171/11
f 97/170/12 98/172/12 99/173/12
f 100/175/13 97/170/13 99/173/13
f 98/172/14 100/175/14 99/173/14
f 101/176/11 104/181/11 102/178/11
f 101/177/12 102/179/12 103/180/12
f 104/182/13 101/177/13 103/180/13
f 102/179/14 104/182/14 103/180/14
f 105/183/11 108/188/11 106/185/11
f 105/184/12 106/186/12 107/187/12
f 108/189/13 105/184/13 107/187/13
f 106/186/14 108/189/14 107/187/14
f 109/190/11 112/195/11 110/192/11
f 109/191/12 110/193/12 111/194/12
f 112/196/13 109/191/13 111/194/13
f 110/193/14 112/196/14 111/194/14
f 113/197/11 116/202/11 114/199/11
f 113/198/12 114/200/12 115/201/12
f 116/203/13 113/198/13 115/201/13
f 114/200/14 116/203/14 115/201/14
f 117/204/11 120/209/11 118/206/11
f 117/205/12 118/207/12 119/208/12
f 120/210/13 117/205/13 119/208/13
f 118/207/14 120/210/14 119/208/14
